<svg width="73" height="73" viewBox="0 0 73 73" fill="none" xmlns="http://www.w3.org/2000/svg">
<g clip-path="url(#clip0)">
<path fill-rule="evenodd" clip-rule="evenodd" d="M57.8339 73.001H15.0762C6.89867 73.001 0.269562 66.3719 0.269562 58.1944V14.8778C0.269562 6.70051 6.89867 0.0712891 15.0762 0.0712891H57.8339C66.0113 0.0712891 72.6406 6.70051 72.6406 14.8778V58.1944C72.6406 66.3719 66.0113 73.001 57.8339 73.001Z" fill="url(#paint0_linear)"/>
<path d="M38.9024 44.991L31.8887 38.0601L31.9715 37.9773C36.7762 32.6204 40.2001 26.4628 42.2159 19.9461H50.3065V14.4098H30.9775V8.88721H25.4549V14.4098H6.12598V19.9047H36.9694C35.1055 25.2339 32.1923 30.2871 28.2161 34.7052C25.6481 31.8473 23.5219 28.7408 21.8376 25.4549H16.3151C18.3308 29.9557 21.0921 34.2082 24.5437 38.0463L10.5026 51.9217L14.4098 55.829L28.2162 42.0225L36.8039 50.6101L38.9024 44.991Z" fill="white"/>
<path d="M54.4483 30.9774H48.9257L36.4999 64.1128H42.0225L45.129 55.8289H58.245L61.3514 64.1128H66.874L54.4483 30.9774ZM47.1999 50.3063L51.687 38.3362L56.1742 50.3063H47.1999Z" fill="white"/>
</g>
<defs>
<linearGradient id="paint0_linear" x1="0.269562" y1="73.001" x2="36.4551" y2="36.5362" gradientUnits="userSpaceOnUse">
<stop stop-color="#ED6950"/>
<stop offset="1" stop-color="#E84883"/>
</linearGradient>
<clipPath id="clip0">
<rect width="73" height="73" fill="white"/>
</clipPath>
</defs>
</svg>
